
<svg xmlns="http://www.w3.org/2000/svg"
     class="svg-snoweb svg-theme-light"
     x="0"
     y="0"
     width="100%"
     height="100%"
     viewBox="0 0 100 100"
     preserveAspectRatio="xMidYMid meet"
>
<defs>
    <style>
        
            
            
            
        

        .svg-fill-primary {
            fill: #520455;
        }

        .svg-fill-secondary {
            fill: #65CDAE;
        }

        .svg-fill-tertiary {
            fill: #E5E7EB;
        }

        .svg-stroke-primary {
            stroke: #520455;
        }

        .svg-stroke-secondary {
            stroke: #65CDAE;
        }

        .svg-stroke-tertiary {
            stroke: #E5E7EB;
        }
    </style>
</defs>
    <path d="M67.8,32.2H75a7.1,7.1,0,0,1,7.1,7.1V60.7A7.1,7.1,0,0,1,75,67.8H67.8V82.1L53.6,67.8H39.3a6.8,6.8,0,0,1-5-2.1m0,0L46.4,53.6H60.7a7.1,7.1,0,0,0,7.1-7.2V25a7.1,7.1,0,0,0-7.1-7.1H25A7.1,7.1,0,0,0,17.9,25V46.4A7.1,7.1,0,0,0,25,53.6h7.2V67.8Z"
      fill="none" class="svg-stroke-primary" stroke-linecap="round" stroke-linejoin="round" stroke-width="8"/>

</svg>